<?xml version="1.0" encoding="UTF-8" standalone="no"?>
<!DOCTYPE svg PUBLIC "-//W3C//DTD SVG 1.1//EN"
 "http://www.w3.org/Graphics/SVG/1.1/DTD/svg11.dtd">
<!-- Generated by graphviz version 2.43.0 (0)
 -->
<!-- Title: src/utility/header/commonTypes.h Pages: 1 -->
<svg width="417pt" height="173pt"
 viewBox="0.00 0.00 417.00 173.00" xmlns="http://www.w3.org/2000/svg" xmlns:xlink="http://www.w3.org/1999/xlink">
<g id="graph0" class="graph" transform="scale(1 1) rotate(0) translate(4 169)">
<title>src/utility/header/commonTypes.h</title>
<polygon fill="white" stroke="transparent" points="-4,4 -4,-169 413,-169 413,4 -4,4"/>
<!-- Node1 -->
<g id="node1" class="node">
<title>Node1</title>
<g id="a_node1"><a xlink:title="Provides cross&#45;platform type definitions.">
<polygon fill="#bfbfbf" stroke="black" points="196,-134.5 196,-164.5 295,-164.5 295,-134.5 196,-134.5"/>
<text text-anchor="start" x="204" y="-152.5" font-family="Helvetica,sans-Serif" font-size="10.00">src/utility/header</text>
<text text-anchor="middle" x="245.5" y="-141.5" font-family="Helvetica,sans-Serif" font-size="10.00">/commonTypes.h</text>
</a>
</g>
</g>
<!-- Node2 -->
<g id="node2" class="node">
<title>Node2</title>
<g id="a_node2"><a xlink:href="pomodoro_8h.html" target="_top" xlink:title="Provides functions for math. utilities.">
<polygon fill="white" stroke="black" points="116,-67.5 116,-97.5 235,-97.5 235,-67.5 116,-67.5"/>
<text text-anchor="start" x="124" y="-85.5" font-family="Helvetica,sans-Serif" font-size="10.00">src/pomodoro/header</text>
<text text-anchor="middle" x="175.5" y="-74.5" font-family="Helvetica,sans-Serif" font-size="10.00">/pomodoro.h</text>
</a>
</g>
</g>
<!-- Node1&#45;&gt;Node2 -->
<g id="edge1" class="edge">
<title>Node1&#45;&gt;Node2</title>
<path fill="none" stroke="midnightblue" d="M222.68,-127.31C212.18,-117.56 200.01,-106.26 190.66,-97.58"/>
<polygon fill="midnightblue" stroke="midnightblue" points="220.6,-130.16 230.31,-134.4 225.36,-125.03 220.6,-130.16"/>
</g>
<!-- Node5 -->
<g id="node5" class="node">
<title>Node5</title>
<g id="a_node5"><a xlink:href="mathUtility_8h.html" target="_top" xlink:title="Provides functions for math. utilities.">
<polygon fill="white" stroke="black" points="267,-67.5 267,-97.5 366,-97.5 366,-67.5 267,-67.5"/>
<text text-anchor="start" x="275" y="-85.5" font-family="Helvetica,sans-Serif" font-size="10.00">src/utility/header</text>
<text text-anchor="middle" x="316.5" y="-74.5" font-family="Helvetica,sans-Serif" font-size="10.00">/mathUtility.h</text>
</a>
</g>
</g>
<!-- Node1&#45;&gt;Node5 -->
<g id="edge4" class="edge">
<title>Node1&#45;&gt;Node5</title>
<path fill="none" stroke="midnightblue" d="M268.33,-127.6C279.05,-117.78 291.55,-106.34 301.12,-97.58"/>
<polygon fill="midnightblue" stroke="midnightblue" points="265.92,-125.06 260.91,-134.4 270.65,-130.22 265.92,-125.06"/>
</g>
<!-- Node3 -->
<g id="node3" class="node">
<title>Node3</title>
<g id="a_node3"><a xlink:href="pomodoro_8cpp.html" target="_top" xlink:title=" ">
<polygon fill="white" stroke="black" points="0,-0.5 0,-30.5 99,-30.5 99,-0.5 0,-0.5"/>
<text text-anchor="start" x="8" y="-18.5" font-family="Helvetica,sans-Serif" font-size="10.00">src/pomodoro/src</text>
<text text-anchor="middle" x="49.5" y="-7.5" font-family="Helvetica,sans-Serif" font-size="10.00">/pomodoro.cpp</text>
</a>
</g>
</g>
<!-- Node2&#45;&gt;Node3 -->
<g id="edge2" class="edge">
<title>Node2&#45;&gt;Node3</title>
<path fill="none" stroke="midnightblue" d="M139.08,-62.71C119.21,-52.46 95.02,-39.98 76.79,-30.58"/>
<polygon fill="midnightblue" stroke="midnightblue" points="137.67,-65.92 148.16,-67.4 140.88,-59.7 137.67,-65.92"/>
</g>
<!-- Node4 -->
<g id="node4" class="node">
<title>Node4</title>
<g id="a_node4"><a xlink:href="pomodoroapp_8cpp.html" target="_top" xlink:title="A simple program to demonstrate the usage of the pomodoro model class.">
<polygon fill="white" stroke="black" points="117,-0.5 117,-30.5 234,-30.5 234,-0.5 117,-0.5"/>
<text text-anchor="start" x="125" y="-18.5" font-family="Helvetica,sans-Serif" font-size="10.00">src/pomodoroapp/src</text>
<text text-anchor="middle" x="175.5" y="-7.5" font-family="Helvetica,sans-Serif" font-size="10.00">/pomodoroapp.cpp</text>
</a>
</g>
</g>
<!-- Node2&#45;&gt;Node4 -->
<g id="edge3" class="edge">
<title>Node2&#45;&gt;Node4</title>
<path fill="none" stroke="midnightblue" d="M175.5,-57.11C175.5,-48.15 175.5,-38.32 175.5,-30.58"/>
<polygon fill="midnightblue" stroke="midnightblue" points="172,-57.4 175.5,-67.4 179,-57.4 172,-57.4"/>
</g>
<!-- Node6 -->
<g id="node6" class="node">
<title>Node6</title>
<g id="a_node6"><a xlink:href="mathUtility_8cpp.html" target="_top" xlink:title="Provides functions for math. utilities.">
<polygon fill="white" stroke="black" points="252,-6 252,-25 409,-25 409,-6 252,-6"/>
<text text-anchor="middle" x="330.5" y="-13" font-family="Helvetica,sans-Serif" font-size="10.00">src/utility/src/mathUtility.cpp</text>
</a>
</g>
</g>
<!-- Node5&#45;&gt;Node6 -->
<g id="edge5" class="edge">
<title>Node5&#45;&gt;Node6</title>
<path fill="none" stroke="midnightblue" d="M321.65,-57.6C324.09,-46.28 326.85,-33.46 328.63,-25.19"/>
<polygon fill="midnightblue" stroke="midnightblue" points="318.22,-56.88 319.54,-67.4 325.06,-58.36 318.22,-56.88"/>
</g>
</g>
</svg>
