<?xml version="1.0" encoding="UTF-8" standalone="no"?>
<!DOCTYPE svg PUBLIC "-//W3C//DTD SVG 1.1//EN"
 "http://www.w3.org/Graphics/SVG/1.1/DTD/svg11.dtd">
<!-- Generated by graphviz version 2.43.0 (0)
 -->
<!-- Title: src/pomodoroapp Pages: 1 -->
<svg width="284pt" height="159pt"
 viewBox="0.00 0.00 284.00 159.00" xmlns="http://www.w3.org/2000/svg" xmlns:xlink="http://www.w3.org/1999/xlink">
<g id="graph0" class="graph" transform="scale(1 1) rotate(0) translate(4 155)">
<title>src/pomodoroapp</title>
<polygon fill="white" stroke="transparent" points="-4,4 -4,-155 280,-155 280,4 -4,4"/>
<g id="clust1" class="cluster">
<title>clusterdir_68267d1309a1af8e8297ef4c3efbcdba</title>
<g id="a_clust1"><a xlink:href="dir_68267d1309a1af8e8297ef4c3efbcdba.html" xlink:title="src">
<polygon fill="#ddddee" stroke="black" points="8,-56 8,-143 268,-143 268,-56 8,-56"/>
<text text-anchor="middle" x="138" y="-131" font-family="Helvetica,sans-Serif" font-size="10.00">src</text>
</a>
</g>
</g>
<g id="clust2" class="cluster">
<title>clusterdir_ee586f9e7adfbbacd65abd2bdb93adb3</title>
<g id="a_clust2"><a xlink:href="dir_ee586f9e7adfbbacd65abd2bdb93adb3.html">
<polygon fill="#eeeeff" stroke="black" points="16,-64 16,-116 260,-116 260,-64 16,-64"/>
</a>
</g>
</g>
<!-- dir_ee586f9e7adfbbacd65abd2bdb93adb3 -->
<g id="node1" class="node">
<title>dir_ee586f9e7adfbbacd65abd2bdb93adb3</title>
<text text-anchor="middle" x="210" y="-87.5" font-family="Helvetica,sans-Serif" font-size="10.00">pomodoroapp</text>
</g>
<!-- dir_e006bb7c9dfce277d72d5826207c5d4a -->
<g id="node2" class="node">
<title>dir_e006bb7c9dfce277d72d5826207c5d4a</title>
<g id="a_node2"><a xlink:href="dir_e006bb7c9dfce277d72d5826207c5d4a.html" xlink:title="header">
<polygon fill="white" stroke="black" points="150,-108 96,-108 96,-72 150,-72 150,-108"/>
<text text-anchor="middle" x="123" y="-87.5" font-family="Helvetica,sans-Serif" font-size="10.00">header</text>
</a>
</g>
</g>
<!-- dir_f6154214b2146273d19620ddc939c281 -->
<g id="node3" class="node">
<title>dir_f6154214b2146273d19620ddc939c281</title>
<g id="a_node3"><a xlink:href="dir_f6154214b2146273d19620ddc939c281.html" xlink:title="src">
<polygon fill="white" stroke="black" points="78,-108 24,-108 24,-72 78,-72 78,-108"/>
<text text-anchor="middle" x="51" y="-87.5" font-family="Helvetica,sans-Serif" font-size="10.00">src</text>
</a>
</g>
</g>
<!-- dir_05e57a8512d411a64fc14754c853dfa6 -->
<g id="node4" class="node">
<title>dir_05e57a8512d411a64fc14754c853dfa6</title>
<g id="a_node4"><a xlink:href="dir_05e57a8512d411a64fc14754c853dfa6.html" xlink:title="pomodoro">
<polygon fill="white" stroke="red" points="83.5,-36 18.5,-36 18.5,0 83.5,0 83.5,-36"/>
<text text-anchor="middle" x="51" y="-15.5" font-family="Helvetica,sans-Serif" font-size="10.00">pomodoro</text>
</a>
</g>
</g>
<!-- dir_f6154214b2146273d19620ddc939c281&#45;&gt;dir_05e57a8512d411a64fc14754c853dfa6 -->
<g id="edge1" class="edge">
<title>dir_f6154214b2146273d19620ddc939c281&#45;&gt;dir_05e57a8512d411a64fc14754c853dfa6</title>
<path fill="none" stroke="black" d="M51,-71.7C51,-63.98 51,-54.71 51,-46.11"/>
<polygon fill="black" stroke="black" points="54.5,-46.1 51,-36.1 47.5,-46.1 54.5,-46.1"/>
<g id="a_edge1&#45;headlabel"><a xlink:href="dir_000006_000001.html" xlink:title="1">
<text text-anchor="middle" x="57.34" y="-47.2" font-family="Helvetica,sans-Serif" font-size="10.00">1</text>
</a>
</g>
</g>
</g>
</svg>
